<svg xmlns="http://www.w3.org/2000/svg" viewBox="0 0 32 32">
<rect width="32" height="32" fill="#F5F0E8"/>
<line x1="17.9" y1="16.5" x2="24.7" y2="18.3" stroke="#7B8FA1" stroke-width="0.8" stroke-opacity="0.55"/>
<line x1="17.4" y1="17.4" x2="22.4" y2="22.4" stroke="#7B8FA1" stroke-width="0.8" stroke-opacity="0.55"/>
<line x1="16.5" y1="17.9" x2="18.3" y2="24.7" stroke="#7B8FA1" stroke-width="0.8" stroke-opacity="0.55"/>
<line x1="15.5" y1="17.9" x2="13.7" y2="24.7" stroke="#7B8FA1" stroke-width="0.8" stroke-opacity="0.55"/>
<line x1="14.6" y1="17.4" x2="9.6" y2="22.4" stroke="#7B8FA1" stroke-width="0.8" stroke-opacity="0.55"/>
<line x1="14.1" y1="16.5" x2="7.3" y2="18.3" stroke="#7B8FA1" stroke-width="0.8" stroke-opacity="0.55"/>
<line x1="14.1" y1="15.5" x2="7.3" y2="13.7" stroke="#7B8FA1" stroke-width="0.8" stroke-opacity="0.55"/>
<line x1="14.6" y1="14.6" x2="9.6" y2="9.6" stroke="#7B8FA1" stroke-width="0.8" stroke-opacity="0.55"/>
<line x1="15.5" y1="14.1" x2="13.7" y2="7.3" stroke="#7B8FA1" stroke-width="0.8" stroke-opacity="0.55"/>
<line x1="16.5" y1="14.1" x2="18.3" y2="7.3" stroke="#7B8FA1" stroke-width="0.8" stroke-opacity="0.55"/>
<line x1="17.4" y1="14.6" x2="22.4" y2="9.6" stroke="#7B8FA1" stroke-width="0.8" stroke-opacity="0.55"/>
<line x1="17.9" y1="15.5" x2="24.7" y2="13.7" stroke="#7B8FA1" stroke-width="0.8" stroke-opacity="0.55"/>
<circle cx="16" cy="16" r="2" fill="#2C2C2A"/>
<circle cx="21.8" cy="6.0" r="2.2" fill="none" stroke="#FF7A05" stroke-width="0.8"/>
<circle cx="27.5" cy="16.0" r="2.2" fill="none" stroke="#65A30D" stroke-width="0.8"/>
<circle cx="21.8" cy="26.0" r="2.2" fill="none" stroke="#FF7A05" stroke-width="0.8"/>
<circle cx="10.3" cy="26.0" r="2.2" fill="none" stroke="#65A30D" stroke-width="0.8"/>
<circle cx="4.5" cy="16.0" r="2.2" fill="none" stroke="#FF7A05" stroke-width="0.8"/>
<circle cx="10.2" cy="6.0" r="2.2" fill="none" stroke="#65A30D" stroke-width="0.8"/>
</svg>